<svg width="28" height="16" viewBox="0 0 28 16" fill="none" xmlns="http://www.w3.org/2000/svg">
<path d="M6.76393 4.19577C7.56731 3.93474 8.4327 3.93474 9.23607 4.19577C10.2866 4.53711 11.4149 3.9622 11.7562 2.9117C12.0975 1.86119 11.5226 0.732879 10.4721 0.391548C8.86539 -0.130516 7.13461 -0.130516 5.52786 0.391548C3.92112 0.913611 2.52089 1.93094 1.52786 3.29772C0.53484 4.6645 0 6.31056 0 8C0 9.68943 0.534839 11.3355 1.52786 12.7023C2.52089 14.0691 3.92112 15.0864 5.52786 15.6085C7.13461 16.1305 8.86539 16.1305 10.4721 15.6085C12.0789 15.0864 13.4791 14.0691 14.4721 12.7023C15.4652 11.3355 16 9.68943 16 8C16 7.15528 16.2674 6.33225 16.7639 5.64886C17.2604 4.96547 17.9606 4.45681 18.7639 4.19577C19.5673 3.93474 20.4327 3.93474 21.2361 4.19577C22.0394 4.45681 22.7396 4.96547 23.2361 5.64886C23.7326 6.33225 24 7.15528 24 8C24 8.84472 23.7326 9.66775 23.2361 10.3511C22.7396 11.0345 22.0394 11.5432 21.2361 11.8042C20.4327 12.0653 19.5673 12.0653 18.7639 11.8042C17.7134 11.4629 16.5851 12.0378 16.2438 13.0883C15.9025 14.1388 16.4774 15.2671 17.5279 15.6085C19.1346 16.1305 20.8654 16.1305 22.4721 15.6085C24.0789 15.0864 25.4791 14.0691 26.4721 12.7023C27.4652 11.3355 28 9.68944 28 8C28 6.31057 27.4652 4.6645 26.4721 3.29772C25.4791 1.93094 24.0789 0.913612 22.4721 0.391548C20.8654 -0.130516 19.1346 -0.130516 17.5279 0.391548C15.9211 0.913612 14.5209 1.93094 13.5279 3.29772C12.5348 4.6645 12 6.31057 12 8C12 8.84472 11.7326 9.66775 11.2361 10.3511C10.7396 11.0345 10.0394 11.5432 9.23607 11.8042C8.43269 12.0653 7.56731 12.0653 6.76393 11.8042C5.96056 11.5432 5.26044 11.0345 4.76393 10.3511C4.26742 9.66775 4 8.84472 4 8C4 7.15528 4.26742 6.33225 4.76393 5.64886C5.26044 4.96547 5.96056 4.45681 6.76393 4.19577Z" fill="#000000"/>
</svg>
